<?xml version="1.0" encoding="utf-8"?>
<!-- Generator: Adobe Illustrator 18.1.0, SVG Export Plug-In . SVG Version: 6.00 Build 0)  -->
<svg version="1.1" id="Layer_1" xmlns="http://www.w3.org/2000/svg" xmlns:xlink="http://www.w3.org/1999/xlink" x="0px" y="0px"
	 viewBox="0 0 42 42" enable-background="new 0 0 42 42" xml:space="preserve">
<g>
	<path fill="#FFFFFF" d="M20.9,41.5C9.6,41.5,0.5,32.3,0.5,21S9.6,0.5,20.9,0.5S41.4,9.7,41.4,21S32.2,41.5,20.9,41.5z"/>
	<path fill="#D4D4D4" d="M20.9,1c11,0,20,9,20,20s-9,20-20,20S1,32,1,21S9.9,1,20.9,1 M20.9,0C9.4,0,0,9.4,0,21s9.4,21,21,21
		s21-9.4,21-21S32.5,0,20.9,0L20.9,0z"/>
</g>
<path fill="#3DAD65" d="M17.9,25l-5.3,3.1c0-0.1-0.1-0.1-0.1-0.2l-0.3-0.5c-0.1-0.1-0.1-0.2-0.1-0.3c0-0.2,0.1-0.3,0.3-0.4l4.4-2.6
	c0.2-0.1,0.3-0.1,0.5,0c0.1,0,0.2,0.1,0.2,0.2l0.3,0.5C17.8,24.9,17.9,24.9,17.9,25z M24.1,18.2l0.5,0.4c0.1,0.1,0.1,0.1,0.2,0.1
	l3.6-5.1c-0.1-0.1-0.1-0.1-0.2-0.2l-0.5-0.4c-0.1-0.1-0.2-0.1-0.3-0.1c-0.2,0-0.3,0.1-0.5,0.2l-3,4.2c-0.1,0.2-0.1,0.3-0.1,0.5
	C24,18.1,24,18.1,24.1,18.2z M29.8,17.4c-0.5,1.9-2.6,4.9-5.7,7.7c-2.8,2.5-5.6,4.3-7.5,4.8C16.2,30,15.8,30,15.4,30
	c-0.1,0-0.2,0-0.3,0c-0.4-0.1-0.8-0.2-1.2-0.5c-0.5-0.3-0.9-0.7-1.2-1.2l5.3-3.1c0.1,0.1,0.1,0.3,0.2,0.4c0.6,0.7,2.7-0.2,4.7-2
	c2-1.8,3.1-3.9,2.5-4.6l0,0c-0.1-0.1-0.3-0.1-0.4-0.2l3.6-5c0.4,0.4,0.8,0.9,1,1.4c0.2,0.4,0.3,0.8,0.3,1.2
	C30,16.6,29.9,17,29.8,17.4C29.8,17.4,29.8,17.4,29.8,17.4z M25.9,20.8c0.3-0.6,0.5-1.1,0.5-1.5c-0.2,0-0.4-0.1-0.6-0.2
	c0.2,0.4,0.1,1.1-0.4,2C25,22,24.2,23,23.2,23.9c-1.4,1.3-2.9,2.1-3.9,2.3c-0.1,0-0.2,0-0.3,0c-0.3,0-0.5-0.1-0.6-0.2l0,0
	c0,0.2,0.1,0.4,0.1,0.6c0,0,0,0,0.1,0c0.1,0,0.2,0,0.3,0c1.2-0.2,2.9-1.2,4.5-2.6C24.4,23,25.3,21.9,25.9,20.8z M17.8,21.2
	c-0.2,0-0.3-0.1-0.4-0.2c-0.2-0.2-0.2-0.6-0.2-0.8c0.1-1.1,0.6-2,1.5-2.5c0.5-0.3,1-0.4,1.6-0.4c0.1,0,0.1,0,0.2,0
	c0.2,0,0.5,0.1,0.7,0.3c0.1,0.1,0.1,0.3,0.1,0.4c0,0.1,0,0.2-0.1,0.2c-0.2,0.1-0.4,0.1-0.5,0.1c0,0-0.1,0-0.1,0c-0.1,0-0.2,0-0.3,0
	c-0.4,0-0.7,0.1-1,0.3c-0.7,0.4-1.1,1.2-1,2c0,0.1-0.1,0.3-0.2,0.4C18,21.2,17.9,21.2,17.8,21.2L17.8,21.2z M15.2,21.2
	C15.2,21.2,15.2,21.2,15.2,21.2L15.2,21.2c-0.2,0-0.4-0.1-0.5-0.2c-0.1-0.1-0.2-0.2-0.2-0.4v0l0,0c0,0,0-0.2,0-0.4
	c0.2-2,1.2-3.7,2.9-4.7c0.9-0.5,1.9-0.8,3-0.8c0.1,0,0.2,0,0.3,0l0.3,0l0,0c0.1,0,0.2,0.1,0.3,0.2c0.1,0.1,0.2,0.3,0.2,0.5l0,0
	c0,0.1-0.1,0.3-0.2,0.3c-0.1,0-0.1,0.1-0.2,0.1c0,0,0,0-0.1,0l-0.3,0c-0.1,0-0.2,0-0.3,0c-0.9,0-1.7,0.2-2.4,0.7
	c-1.4,0.8-2.3,2.4-2.4,4l0,0.3c0,0.1,0,0.2-0.1,0.3C15.4,21.2,15.3,21.2,15.2,21.2z M12.5,21.2C12.5,21.2,12.5,21.2,12.5,21.2
	c-0.2,0-0.3-0.1-0.4-0.2C12,20.9,12,20.7,12,20.6v0l0,0c0,0,0-0.1,0-0.4c0.2-2.9,1.8-5.5,4.3-7c1.3-0.8,2.8-1.2,4.4-1.2
	c0.1,0,0.3,0,0.4,0l0.3,0c0.1,0,0.2,0.1,0.3,0.2c0.1,0.1,0.2,0.3,0.2,0.4c0,0.2-0.1,0.3-0.2,0.4c-0.1,0-0.1,0.1-0.2,0.1c0,0,0,0,0,0
	l-0.3,0c-0.2,0-0.3,0-0.5,0c-1.3,0-2.7,0.4-3.8,1.1c-2.2,1.3-3.6,3.6-3.8,6.2l0,0.3c0,0.1,0,0.3-0.1,0.4
	C12.8,21.1,12.7,21.2,12.5,21.2z"/>
</svg>
